<?xml version="1.0" encoding="UTF-8" standalone="no"?>
<svg
   id="semgreplogo"
   version="1.1"
   viewBox="0 0 200 200"
   sodipodi:docname="semgr8s-logo-single.svg"
   inkscape:version="1.1.2 (0a00cf5339, 2022-02-04)"
   width="200"
   height="200"
   xmlns:inkscape="http://www.inkscape.org/namespaces/inkscape"
   xmlns:sodipodi="http://sodipodi.sourceforge.net/DTD/sodipodi-0.dtd"
   xmlns="http://www.w3.org/2000/svg"
   xmlns:svg="http://www.w3.org/2000/svg">
  <defs
     id="defs20" />
  <sodipodi:namedview
     id="namedview18"
     pagecolor="#ffffff"
     bordercolor="#666666"
     borderopacity="1.0"
     inkscape:pageshadow="2"
     inkscape:pageopacity="0.0"
     inkscape:pagecheckerboard="0"
     showgrid="false"
     inkscape:zoom="1.7327353"
     inkscape:cx="106.7676"
     inkscape:cy="148.89752"
     inkscape:window-width="1920"
     inkscape:window-height="990"
     inkscape:window-x="0"
     inkscape:window-y="28"
     inkscape:window-maximized="1"
     inkscape:current-layer="semgreplogo"
     fit-margin-top="0"
     fit-margin-left="0"
     fit-margin-right="0"
     fit-margin-bottom="0" />
  <g
     id="semgrep-letters"
     fill="#293331"
     transform="translate(-156,-18)" />
  <g
     id="g2413"
     inkscape:export-filename="/home/xoph/code/semgr8s/docs/assets/semgr8s-logo-single.png"
     inkscape:export-xdpi="96"
     inkscape:export-ydpi="96"
     transform="translate(-156)">
    <path
       d="m 256,0 c -55.22841,0 -100,44.77158 -100,100 0.008,22.74213 7.76844,44.80216 22,62.54102 0.0415,-0.052 0.07,-0.0928 0.11133,-0.14454 0.0125,0.0156 0.0246,0.0313 0.0371,0.0469 0.96022,-1.20705 1.88357,-2.443 2.78711,-3.69336 4.19703,-5.49557 7.10017,-10.10355 9.92773,-17.07812 0.25397,-0.55649 0.51186,-1.11021 0.75586,-1.67188 H 195 c -0.72386,2.98756 -1.74037,5.91654 -2.99414,8.88477 -2.79519,5.99462 -6.2697,12.37905 -9.80078,18.10937 -0.057,0.0923 -0.10092,0.17302 -0.1582,0.26563 C 200.98816,188.09943 227.83861,199.98656 256,200 c 28.16139,-0.0134 55.01184,-11.90057 73.95312,-32.74023 -0.0573,-0.0926 -0.10122,-0.17336 -0.1582,-0.26563 -3.53108,-5.73032 -7.00559,-12.11475 -9.80078,-18.10937 C 318.74037,145.91654 317.72386,142.98756 317,140 h 3.38086 c 0.244,0.56167 0.50189,1.11539 0.75586,1.67188 2.82756,6.97457 5.7307,11.58255 9.92773,17.07812 0.90354,1.25036 1.82689,2.48631 2.78711,3.69336 0.0125,-0.0156 0.0246,-0.0313 0.0371,-0.0469 0.0413,0.0518 0.0698,0.0925 0.11133,0.14454 C 348.23156,144.80216 355.992,122.74213 356,100 356,44.77158 311.22841,0 256,0 Z m 0,44 c 30.92792,0 56,25.07208 56,56 0,30.92792 -25.07208,56 -56,56 -30.92792,0 -56,-25.07208 -56,-56 0,-0.966497 0.0239,-1.926386 0.0723,-2.880859 C 201.57212,67.530461 226.03858,44.000001 256,44 Z"
       id="path4"
       style="fill:#13bf95" />
    <g
       id="g876"
       transform="translate(0,2.0156264)">
      <path
         d="m 329.27997,46.961152 c -1.01002,-3.232066 -3.43407,-5.85812 -6.46413,-7.474153 L 261.20458,9.9943948 c -1.61603,-0.8080166 -3.43407,-1.0100207 -5.0501,-1.0100207 -1.61604,0 -3.43407,0 -5.05011,0.4040083 L 189.49311,39.082991 c -3.03006,1.414029 -5.25211,4.040083 -6.06013,7.474153 l -15.15031,66.459366 c -0.60601,3.43407 0.20201,6.86814 2.22205,9.69619 l 42.62287,52.72309 c 2.42405,2.42405 5.85812,4.04008 9.29219,4.24208 h 67.8734 c 3.63607,0.40401 7.07014,-1.21202 9.29219,-4.24208 l 42.62287,-52.72309 c 2.02004,-2.82805 2.82806,-6.26212 2.42405,-9.69619 z"
         id="path10349-3"
         style="fill:#326de6;stroke-width:2.02004" />
      <path
         d="m 319.78578,110.39045 v 0 c -0.202,0 -0.40401,0 -0.40401,-0.202 0,-0.20201 -0.40401,-0.20201 -0.80802,-0.20201 -0.80801,-0.202 -1.61603,-0.202 -2.42404,-0.202 -0.40401,0 -0.80802,0 -1.21203,-0.202 h -0.202 c -2.22205,-0.20201 -4.6461,-0.60602 -6.86814,-1.21203 -0.60602,-0.202 -1.21203,-0.80802 -1.41403,-1.41403 0.202,0 0,0 0,0 v 0 l -1.61604,-0.40401 c 0.80802,-5.85812 0.40401,-11.918241 -0.80801,-17.776361 -1.41403,-5.85812 -3.83808,-11.514236 -7.07015,-16.564339 l 1.21203,-1.212025 v 0 -0.202004 c 0,-0.606012 0.202,-1.414029 0.60601,-1.818037 1.81804,-1.616033 3.63607,-2.828058 5.65612,-4.040083 v 0 c 0.404,-0.202004 0.80801,-0.404008 1.21202,-0.606013 0.80802,-0.404008 1.41403,-0.808016 2.22205,-1.212024 0.202,-0.202005 0.404,-0.202005 0.60601,-0.404009 0.202,-0.202004 0,-0.202004 0,-0.404008 v 0 c 1.81804,-1.414029 2.22204,-3.838079 0.80801,-5.656116 -0.60601,-0.808016 -1.81803,-1.414029 -2.82805,-1.414029 -1.01002,0 -2.02004,0.404008 -2.82806,1.010021 v 0 l -0.20201,0.202004 c -0.202,0.202004 -0.404,0.404008 -0.60601,0.404008 -0.60601,0.606013 -1.21202,1.212025 -1.61603,1.818038 -0.20201,0.404008 -0.60601,0.606012 -0.80802,0.808016 v 0 c -1.41403,1.616033 -3.23206,3.232066 -5.0501,4.444091 -0.40401,0.202004 -0.80802,0.404008 -1.21203,0.404008 -0.202,0 -0.60601,0 -0.80801,-0.202004 h -0.20201 l -1.61603,1.010021 c -1.61603,-1.616033 -3.43407,-3.232066 -5.0501,-4.848099 -7.47416,-5.85812 -16.76635,-9.494195 -26.26054,-10.504216 l -0.20201,-1.616033 v 0 0.202004 c -0.60601,-0.404008 -0.80801,-1.01002 -1.01002,-1.616033 0,-2.222045 0,-4.444091 0.40401,-6.86814 v -0.202005 c 0,-0.404008 0.20201,-0.808016 0.20201,-1.212024 0.202,-0.808017 0.202,-1.616034 0.404,-2.42405 v -1.212025 0 c 0.20201,-2.020041 -1.41402,-4.040083 -3.43407,-4.242087 -1.21202,-0.202004 -2.42405,0.404008 -3.43407,1.414029 -0.80801,0.808017 -1.21202,1.818037 -1.21202,2.828058 v 0 1.010021 c 0,0.808016 0.202,1.616033 0.40401,2.424049 0.202,0.404009 0.202,0.808017 0.202,1.212025 v 0.202004 c 0.40401,2.222046 0.40401,4.444091 0.40401,6.868141 -0.202,0.606013 -0.40401,1.212025 -1.01002,1.616033 v 0.404009 0 l -0.20201,1.616033 c -2.22204,0.202004 -4.44409,0.606012 -6.86814,1.01002 -9.49419,2.020042 -18.18037,7.070145 -24.84651,14.14029 l -1.21202,-0.808016 h -0.202 c -0.20201,0 -0.40401,0.202004 -0.80802,0.202004 -0.40401,0 -0.80802,-0.202004 -1.21203,-0.404009 -1.81803,-1.414029 -3.63607,-3.030062 -5.0501,-4.646095 v 0 c -0.202,-0.404008 -0.60601,-0.606012 -0.80802,-0.808016 -0.60601,-0.606013 -1.01002,-1.212025 -1.61603,-1.818038 -0.202,-0.202004 -0.40401,-0.202004 -0.60601,-0.404008 -0.20201,-0.202004 -0.20201,-0.202004 -0.20201,-0.202004 v 0 c -0.80801,-0.606012 -1.81803,-1.010021 -2.82805,-1.010021 -1.21203,0 -2.22205,0.404009 -2.82806,1.414029 -1.21203,1.818038 -0.80802,4.242087 0.80802,5.656116 v 0 c 0.202,0 0.202,0.202004 0.202,0.202004 0,0 0.40401,0.404009 0.60601,0.404009 0.60601,0.404008 1.41403,0.808016 2.22205,1.212024 0.40401,0.202005 0.80801,0.404009 1.21202,0.606013 v 0 c 2.02004,1.212025 4.04008,2.42405 5.65612,4.040083 0.40401,0.404008 0.80801,1.212025 0.60601,1.818037 v -0.202004 0 l 1.21203,1.212025 c -0.20201,0.404008 -0.40401,0.606012 -0.60602,1.01002 -6.26213,9.898203 -8.88818,21.614443 -7.07014,33.128678 l -1.61604,0.40401 v 0 c 0,0.202 -0.202,0.202 -0.202,0.202 -0.202,0.60602 -0.80802,1.01002 -1.41403,1.41403 -2.22204,0.60602 -4.44409,1.01002 -6.86814,1.21203 v 0 c -0.40401,0 -0.80802,0 -1.21202,0.202 -0.80802,0 -1.61604,0.20201 -2.42405,0.20201 -0.20201,0 -0.40401,0.202 -0.80802,0.202 -0.202,0 -0.202,0 -0.40401,0.202 v 0 c -2.22204,0.40401 -3.63607,2.42405 -3.23206,4.6461 0,0 0,0 0,0 0.404,1.81804 2.22204,3.03006 4.04008,2.82806 0.40401,0 0.60601,0 1.01002,-0.20201 v 0 c 0.202,0 0.202,0 0.202,-0.202 0,-0.20201 0.60602,0 0.80802,0 0.80802,-0.20201 1.61603,-0.60601 2.22205,-0.80802 0.404,-0.202 0.80801,-0.40401 1.21202,-0.40401 h 0.202 c 2.22205,-0.80801 4.24209,-1.41402 6.66614,-1.81803 h 0.202 c 0.60602,0 1.21203,0.202 1.61604,0.60601 0.202,0 0.202,0.202 0.202,0.202 v 0 l 1.81804,-0.202 c 3.03006,9.29219 8.68618,17.57436 16.56434,23.63448 1.81804,1.41403 3.43407,2.62606 5.45411,3.63608 l -1.01002,1.41403 v 0 c 0,0.202 0.202,0.202 0.202,0.202 0.40401,0.60601 0.40401,1.41403 0.20201,2.02004 -0.80802,2.02004 -2.02004,4.04009 -3.23207,5.85812 v 0.20201 c -0.202,0.40401 -0.40401,0.60601 -0.80801,1.01002 -0.40401,0.40401 -0.80802,1.21202 -1.41403,2.02004 -0.20201,0.202 -0.20201,0.40401 -0.40401,0.60601 0,0 0,0.20201 -0.20201,0.20201 v 0 c -1.01002,2.02004 -0.202,4.44409 1.61604,5.45411 0.40401,0.202 1.01002,0.40401 1.41403,0.40401 1.61603,0 3.03006,-1.01003 3.83807,-2.42405 v 0 c 0,0 0,-0.20201 0.20201,-0.20201 0,-0.202 0.202,-0.40401 0.40401,-0.60601 0.202,-0.80802 0.60601,-1.41403 0.80801,-2.22205 l 0.40401,-1.21202 v 0 c 0.60601,-2.22205 1.61604,-4.24209 2.62606,-6.26213 0.404,-0.60601 1.01002,-1.01002 1.61603,-1.21202 0.202,0 0.202,0 0.202,-0.20201 v 0 l 0.80802,-1.61603 c 5.65612,2.22204 11.51424,3.23206 17.57436,3.23206 3.63607,0 7.27215,-0.404 10.90822,-1.41402 2.22205,-0.40401 4.44409,-1.21203 6.46414,-1.81804 l 0.80801,1.41403 v 0 c 0.20201,0 0.20201,0 0.20201,0.202 0.60601,0.20201 1.21202,0.60601 1.61603,1.21203 1.01002,2.02004 2.02004,4.04008 2.62605,6.26212 v 0.20201 l 0.40401,1.21202 c 0.20201,0.80802 0.40401,1.61604 0.80802,2.22205 0.202,0.202 0.202,0.40401 0.40401,0.60601 0,0 0,0.20201 0.202,0.20201 v 0 c 0.80802,1.41402 2.22205,2.42405 3.83808,2.42405 0.60601,0 1.01002,-0.20201 1.61603,-0.40401 0.80802,-0.40401 1.61604,-1.21203 1.81804,-2.22205 0.202,-1.01002 0.202,-2.02004 -0.202,-3.03006 v 0 c 0,-0.202 -0.20201,-0.202 -0.20201,-0.202 0,-0.20201 -0.202,-0.40401 -0.40401,-0.60602 -0.40401,-0.80801 -0.80801,-1.41403 -1.41403,-2.02004 -0.202,-0.40401 -0.404,-0.60601 -0.80801,-1.01002 v -0.40401 c -1.41403,-1.81803 -2.42405,-3.83808 -3.23207,-5.85812 -0.202,-0.60601 -0.202,-1.41403 0.20201,-2.02004 0,-0.202 0.202,-0.202 0.202,-0.202 v 0 l -0.60601,-1.61604 c 10.30221,-6.26212 18.18037,-15.95832 21.81644,-27.47256 l 1.61604,0.20201 v 0 c 0.202,0 0.202,-0.20201 0.202,-0.20201 0.40401,-0.40401 1.01002,-0.60601 1.61603,-0.60601 h 0.20201 c 2.22204,0.40401 4.44409,1.01002 6.46413,1.81804 h 0.20201 c 0.404,0.202 0.80801,0.404 1.21202,0.404 0.80802,0.40401 1.41403,0.80802 2.22205,1.01002 0.202,0 0.404,0.20201 0.80801,0.20201 0.20201,0 0.20201,0 0.40401,0.202 v 0 c 0.40401,0.20201 0.60601,0.20201 1.01002,0.20201 1.81804,0 3.43407,-1.21203 4.04008,-2.82806 -0.202,-2.22205 -1.81803,-3.83808 -3.63607,-4.24209 z m -58.3792,-6.26213 -5.45411,2.62606 -5.45411,-2.62606 -1.41403,-5.858116 3.83808,-4.848099 h 6.06012 l 3.83808,4.848099 z m 32.92668,-13.130265 c 1.01002,4.242087 1.21202,8.484174 0.80801,12.726265 l -19.19039,-5.454116 v 0 c -1.81804,-0.404008 -2.82806,-2.222046 -2.42405,-4.040083 0.20201,-0.606012 0.40401,-1.010021 0.80802,-1.414029 l 15.15031,-13.736281 c 2.22204,3.636074 3.83808,7.676157 4.8481,11.918244 z M 283.42503,71.605658 266.8607,83.321898 c -1.41403,0.808016 -3.43408,0.606012 -4.4441,-0.808017 -0.404,-0.404008 -0.60601,-0.808016 -0.60601,-1.414029 l -1.21202,-20.402418 c 8.88818,1.010021 16.76634,4.848099 22.82646,10.908224 z m -36.56274,-10.302212 4.04008,-0.808016 -1.01002,20.200414 v 0 c 0,1.818037 -1.61604,3.232066 -3.43407,3.232066 -0.60602,0 -1.01002,-0.202004 -1.61604,-0.404008 L 228.0759,71.605658 c 5.25211,-5.050104 11.71624,-8.686179 18.78639,-10.302212 z m -24.64451,17.776365 14.94831,13.332273 v 0 c 1.41403,1.212025 1.61603,3.232066 0.404,4.646095 -0.404,0.606013 -0.80801,0.808017 -1.61603,1.010021 l -19.5944,5.65612 c -0.60601,-8.484178 1.41403,-17.170356 5.85812,-24.644509 z m -3.43407,34.138699 19.99841,-3.43407 c 1.61603,0 3.23207,1.01002 3.43407,2.62605 0.202,0.60602 0.202,1.41403 -0.202,2.02005 v 0 l -7.67616,18.58438 c -7.07015,-4.6461 -12.72626,-11.71624 -15.55432,-19.79641 z m 45.85494,25.04851 c -2.82806,0.60602 -5.65612,1.01002 -8.68618,1.01002 -4.24209,0 -8.68618,-0.80801 -12.72626,-2.02004 l 9.8982,-17.97837 c 1.01002,-1.21202 2.62606,-1.61603 4.04009,-0.80801 0.60601,0.40401 1.01002,0.80801 1.61603,1.41403 v 0 l 9.6962,17.57436 c -1.21203,0.202 -2.42405,0.40401 -3.83808,0.80801 z m 24.6445,-17.57436 c -3.03006,4.8481 -7.27214,9.09019 -12.12024,12.12025 l -7.87817,-18.98839 c -0.404,-1.61603 0.40401,-3.23206 1.81804,-3.83808 0.60601,-0.202 1.21203,-0.404 1.81804,-0.404 l 20.20041,3.43407 c -1.01002,2.82805 -2.22204,5.45411 -3.83808,7.67615 z"
         id="path10351-6"
         style="fill:#ffffff;stroke-width:2.02004" />
    </g>
  </g>
</svg>
