<svg xmlns="http://www.w3.org/2000/svg" width="811.738" height="229.779" viewBox="0 0 214.772 60.796">
    <path d="M142.468 119.616c6.869 0 14.108 1.552 17.86 7.806.944 1.574 1.591 3.276 2.116 5.027-3.348 1.004-6.72 1.91-10.054 2.91-.442-.884-.721-1.99-1.323-2.778-1.546-2.022-3.695-3.068-6.085-3.307-2.966-.297-6.242.029-8.467 1.587-1.33.931-2.35 2.082-2.514 3.704-.427 4.27 4.18 5.912 7.277 6.88.874.273 1.752.702 2.645.925 3.51.878 6.925 1.84 10.187 3.308 2.318 1.042 4.634 2.192 6.482 4.365 5.941 6.99 5.387 19.777-1.852 25.93-1.217 1.034-2.582 1.756-3.969 2.38-3.409 1.535-7.345 2.117-11.377 2.117-6.793 0-13.152-2.29-17.198-8.07-1.365-1.95-2.103-4.233-2.778-6.482 3.14-1.256 6.254-2.58 9.393-3.836.74 1.48 1.193 3.16 2.249 4.498 2.384 3.02 5.495 3.836 9.26 3.836 4.35 0 9.217-2.173 9.922-6.879.627-4.176-2.291-6.616-5.688-7.805-4.284-1.499-8.763-2.42-12.965-4.101-3.014-1.205-6.02-2.778-8.202-5.689-4.772-6.363-4.263-16.67 2.117-22.092 3.426-2.912 8.34-4.234 12.964-4.234zM191.284 119.616c6.868 0 14.107 1.552 17.86 7.806.905 1.51 1.48 3.08 1.984 4.762-3.444.69-6.839 1.906-10.187 2.91-1.058-3.526-3.793-5.46-7.408-5.82-4.031-.404-10.248.603-10.716 5.291-.427 4.27 4.18 5.912 7.276 6.88.875.273 1.753.702 2.646.925 3.51.878 6.924 1.84 10.186 3.308 2.318 1.042 4.635 2.192 6.483 4.365 5.941 6.99 5.387 19.777-1.852 25.93-1.217 1.034-2.583 1.756-3.97 2.38-3.408 1.535-7.344 2.117-11.376 2.117-6.793 0-13.153-2.29-17.198-8.07-1.323-1.888-2.125-4.17-2.778-6.35 3.192-1.276 6.333-2.691 9.525-3.968.61 1.524 1.063 3.164 2.116 4.498 2.384 3.02 5.496 3.836 9.26 3.836 4.35 0 9.218-2.173 9.923-6.879.627-4.176-2.292-6.616-5.689-7.805-4.283-1.499-8.763-2.42-12.964-4.101-3.014-1.205-6.02-2.778-8.202-5.689-4.772-6.363-4.263-16.67 2.116-22.092 3.427-2.912 8.341-4.234 12.965-4.234zM222.505 122.262h33.47v9.393c-7.598.76-15.686-.495-23.284.264v12.568c5.939.594 12.318-.33 18.256.265v9.26c-5.854.585-12.16.132-18.124.132-.504 5.034-.132 10.47-.132 15.61 7.598.76 15.686-.494 23.283.265v9.393h-33.47v-57.15z" style="fill:white;fill-rule:evenodd;stroke-width:.132292" transform="translate(-41.202 -119.675)"/>
    <path style="fill:none;stroke:#da3b01;stroke-width:8.29054;stroke-linecap:round;stroke-linejoin:miter;stroke-miterlimit:4;stroke-dasharray:none;stroke-opacity:1" d="M87.282 159.002h-26.56s-15.375.242-15.375-17.806c0-18.624 15.376-17.462 15.376-17.462h40.276" transform="translate(-41.202 -119.675)"/>
    <path d="M61.79 140.974h26.559s15.375-.243 15.375 17.806c0 18.624-15.375 17.462-15.375 17.462H48.072" style="fill:none;stroke:#68768a;stroke-width:8.29054;stroke-linecap:round;stroke-linejoin:miter;stroke-miterlimit:4;stroke-dasharray:none;stroke-opacity:1" transform="translate(-41.202 -119.675)"/>
</svg>